<svg width="36" height="32" viewBox="0 0 36 32" fill="none" xmlns="http://www.w3.org/2000/svg">
<path d="M4.21952 15.2577C3.9596 15.9616 3.75943 16.5525 3.58952 17.1174C2.54666 20.5874 2.89878 23.8617 4.55556 26.1007C5.95899 27.9975 8.18784 29 11.001 29C13.8131 29 16.0412 27.9977 17.4444 26.1012C19.1013 23.862 19.4533 20.5875 18.4104 17.1173C18.0227 15.8278 17.5249 14.5684 17.0434 13.3505C16.271 11.3964 15.5415 9.55076 15.208 7.55661C14.8554 5.45455 13.542 3 11.001 3C8.45853 3 7.14456 5.45455 6.79182 7.55745C6.69516 8.13826 6.55957 8.73246 6.37743 9.37388C6.27064 9.74967 6.48765 10.1412 6.86206 10.2484C7.23619 10.3555 7.62647 10.1377 7.73319 9.76188C7.93001 9.0691 8.07692 8.42438 8.18225 7.79159C8.27681 7.22783 8.85719 4.41524 11.001 4.41524C12.662 4.41524 13.5564 6.23413 13.8176 7.79123C14.1759 9.93322 14.9674 11.9359 15.7329 13.8725C16.2036 15.0631 16.6902 16.2943 17.0607 17.5262C17.96 20.5187 17.6804 23.4088 16.3126 25.2573C15.186 26.7799 13.3492 27.5848 11.001 27.5848C8.65171 27.5848 6.81425 26.7797 5.68725 25.2568C4.31954 23.4084 4.0399 20.5185 4.9392 17.5263C5.10044 16.9901 5.2918 16.4255 5.54132 15.7497C5.67663 15.3833 5.49043 14.9761 5.12539 14.8402C4.76035 14.7043 4.35476 14.8913 4.21952 15.2577Z" fill="white"/>
<path fill-rule="evenodd" clip-rule="evenodd" d="M15 21.5531C15 24.0051 12.9818 26 10.501 26C8.01907 26 6 24.0051 6 21.5531C6 20.3798 6.47004 18.7941 7.19768 17.5135C8.11856 15.8926 9.29167 15 10.501 15C13.1447 15 15 19.2513 15 21.5531ZM10.5011 16.4435C9.86272 16.4435 9.10437 17.1076 8.47238 18.2198C7.86778 19.284 7.46157 20.6234 7.46157 21.553C7.46157 23.2091 8.82511 24.5564 10.5011 24.5564C12.1759 24.5564 13.5385 23.2091 13.5385 21.553C13.5385 20.6236 13.1324 19.2841 12.5278 18.2197C11.8962 17.1075 11.1386 16.4435 10.5011 16.4435Z" fill="white"/>
<path fill-rule="evenodd" clip-rule="evenodd" d="M33.5322 14.8903C33.9849 16.9112 34.5481 19.4262 35.9278 22.2934C36.0473 22.5418 36.0167 22.8378 35.849 23.0554C35.7129 23.232 35.506 23.3317 35.2909 23.3317C35.2408 23.3317 35.1904 23.3263 35.1403 23.3153C31.7991 22.5771 29.1206 20.2821 27.9837 17.2949C27.9129 17.3757 27.8413 17.4561 27.7677 17.5352C26.5829 18.8103 25.6479 20.3792 24.658 22.0403L24.6579 22.0403L24.6573 22.0413L24.6573 22.0414C23.9414 23.2427 23.2011 24.4848 22.3014 25.738C21.332 27.0913 20.2072 28.2561 18.9585 29.2014C17.7188 30.5282 16.1304 31.4721 14.2683 31.9738C13.8896 32.0759 13.5014 31.8463 13.4011 31.4614C13.3008 31.0764 13.5264 30.6815 13.905 30.5796C16.2222 29.9552 18.0434 28.5396 19.1717 26.4857C20.6035 23.8791 20.8318 20.3858 19.7982 16.9014C19.375 15.4716 18.8575 14.149 18.357 12.8699C17.6231 10.9943 16.9299 9.22265 16.6194 7.34367C16.1703 4.62119 14.4103 1.44211 10.9282 1.44211C7.4446 1.44211 5.68419 4.62119 5.2351 7.34346C4.9246 9.22265 4.23139 10.9943 3.49747 12.8699L3.49551 12.8749C2.9957 14.1525 2.47893 15.4735 2.05641 16.901C1.0219 20.3856 1.25035 23.879 2.68283 26.486C3.81226 28.5415 5.63539 29.9576 7.95514 30.5815C8.33378 30.6832 8.55955 31.078 8.45942 31.463C8.3754 31.7863 8.08832 32 7.7743 32C7.71432 32 7.65329 31.9921 7.59254 31.9758C4.89212 31.2497 2.76622 29.5946 1.44469 27.1895C-0.174394 24.2429 -0.446363 20.3412 0.698466 16.4847C1.13902 14.9964 1.66801 13.6444 2.17958 12.3369L2.17958 12.3369L2.17967 12.3367L2.17976 12.3364L2.17977 12.3364C2.8849 10.5343 3.55092 8.83203 3.8363 7.10486C4.15573 5.16825 4.96412 3.41146 6.11239 2.15841C7.40628 0.74633 9.07157 0 10.9282 0C12.784 0 14.4486 0.74633 15.7423 2.15841C16.794 3.30636 17.5592 4.87724 17.9261 6.62144C18.395 6.43189 18.8229 6.23469 19.2191 6.02498C20.9294 5.1172 22.7942 4.71457 24.4699 4.89097C25.4311 4.99228 26.3148 5.27629 27.0987 5.7291L29.6583 3.76211C30.791 2.89308 32.4074 3.12167 33.262 4.27155V4.27162C34.1175 5.42251 33.8929 7.06689 32.7615 7.9372L30.8281 9.42293C32.5301 10.4215 32.9844 12.444 33.5322 14.8903ZM32.1307 5.14122C31.7472 4.62527 31.0217 4.52295 30.5131 4.91306L28.2907 6.62087C29.0111 7.2618 29.5522 8.23658 29.6827 8.49527L31.9062 6.78661C32.4139 6.39614 32.5148 5.65789 32.1307 5.14122ZM23.4444 21.2937C22.8298 22.3248 22.1969 23.3868 21.4672 24.4448C22.0673 22.0108 21.9724 19.2366 21.1563 16.4852C20.7161 14.9979 20.1877 13.6472 19.6767 12.341L19.6766 12.3408L19.675 12.3367C19.0995 10.8659 18.5503 9.46161 18.2125 8.05611C18.8203 7.81994 19.3683 7.57198 19.8748 7.30392C21.8448 6.25836 24.5858 5.74248 26.6675 7.14404C26.6899 7.16413 26.7135 7.18315 26.7385 7.20046C27.1275 7.46901 27.4839 7.80271 27.799 8.19275C27.7999 8.19375 28.0172 8.48133 28.0572 8.53982C28.0578 8.54075 28.5598 9.39662 28.7116 9.85615V9.85622C29.1368 11.1552 29.0092 12.6451 28.3741 14.0893C27.9617 15.015 27.3746 15.8582 26.7368 16.5445C25.4481 17.9316 24.4748 19.5647 23.4444 21.2937ZM29.6964 14.6146C29.5108 15.0455 29.2885 15.4717 29.0291 15.8887C29.6438 18.3908 31.5101 20.4513 33.9988 21.4585C33.0111 19.0586 32.5404 16.9566 32.1494 15.2107L32.1493 15.2106C31.6299 12.8911 31.2846 11.5372 30.3533 10.8294C30.4101 11.4388 30.3847 12.0667 30.2746 12.7059C30.1816 13.2454 30.0268 13.7876 29.8167 14.3224C29.8124 14.3333 29.8076 14.3441 29.8033 14.3551C29.7688 14.4417 29.7337 14.5283 29.6964 14.6146Z" fill="white"/>
<path d="M5.5 12C5.22387 12 5 12.2237 5 12.4997V12.501C5 12.777 5.22387 13 5.5 13C5.77613 13 6 12.7756 6 12.4997C6 12.2237 5.77613 12 5.5 12Z" fill="white"/>
<path d="M10.5007 31H10.4979C10.2221 31 10 31.2239 10 31.5C10 31.7761 10.225 32 10.5007 32C10.7764 32 11 31.7761 11 31.5C11 31.2239 10.7764 31 10.5007 31Z" fill="white"/>
</svg>
