<svg width="58" height="60" viewBox="0 0 58 60" fill="none" xmlns="http://www.w3.org/2000/svg">
<path fill-rule="evenodd" clip-rule="evenodd" d="M45.8136 53.7989C45.5152 53.4153 44.9652 53.3479 44.5845 53.6482C40.9105 56.5477 36.4955 58.0804 31.8165 58.0804C30.2538 58.0804 28.7088 57.9052 27.2028 57.5601C28.4048 56.8612 29.5338 56.0201 30.5659 55.0441C33.9298 51.8631 35.9532 47.565 36.2631 42.9418C36.3001 42.3909 36.107 41.844 35.7332 41.441C35.3604 41.0388 34.8334 40.8083 34.2874 40.8083H31.7632H26.7782C26.2946 40.8083 25.9028 41.2031 25.9028 41.6904C25.9028 42.1777 26.2946 42.5725 26.7782 42.5725H30.858C30.6574 45.5422 29.4504 48.2374 27.5797 50.3155L19.8952 42.5725H23.1305C23.6141 42.5725 24.006 42.1777 24.006 41.6904C24.006 41.2031 23.6141 40.8083 23.1305 40.8083H11.3985C11.1929 39.6222 11.0874 38.4091 11.0874 37.1922C11.0874 32.1399 12.9014 27.2639 16.1952 23.4622C16.5132 23.0953 16.4757 22.538 16.1115 22.2175C15.7474 21.8973 15.1943 21.935 14.8763 22.302C11.3039 26.4252 9.33651 31.7133 9.33651 37.1923C9.33651 38.4073 9.43327 39.6191 9.6226 40.8084H4.50454H1.98036C1.43455 40.8084 0.907653 41.039 0.534716 41.4407C0.160961 41.8438 -0.0323357 42.3907 0.00443283 42.9418C0.314339 47.5652 2.33766 51.8633 5.7018 55.0442C9.08158 58.24 13.4966 60 18.1339 60C20.4506 60 22.7119 59.5606 24.8165 58.7225L24.8286 58.7273C24.8345 58.7297 24.8404 58.7321 24.8466 58.7341C27.09 59.4711 29.4351 59.8447 31.8166 59.8447C36.8908 59.8447 41.6791 58.1823 45.6643 55.0373C46.045 54.7369 46.1119 54.1825 45.8136 53.7989ZM19.0092 44.175L26.3174 51.5388C24.3105 53.2346 21.7801 54.3205 19.0092 54.5107V44.175ZM10.6732 42.5732C10.6702 42.5732 10.6673 42.573 10.6644 42.5729L10.6575 42.5725H5.40975C5.61028 45.5422 6.81722 48.2375 8.68798 50.3155L16.3725 42.5725H10.6863L10.6805 42.5729L10.6805 42.5729C10.678 42.5731 10.6756 42.5732 10.6732 42.5732ZM17.2583 44.1751V54.5108C14.4874 54.3206 11.957 53.2347 9.95013 51.539L17.2583 44.1751ZM1.75146 42.8228C2.33077 51.4654 9.52677 58.2357 18.1339 58.2357C26.7411 58.2357 33.937 51.4654 34.5161 42.8228C34.5222 42.7333 34.4798 42.6733 34.454 42.6454C34.4231 42.6122 34.3691 42.5725 34.2874 42.5725H32.6114C32.1571 50.2221 25.8379 56.3056 18.1339 56.3056C10.4299 56.3056 4.1106 50.2221 3.6563 42.5725H1.98036C1.89865 42.5725 1.84472 42.6122 1.81379 42.6454C1.788 42.6733 1.74539 42.7334 1.75146 42.8228Z" fill="white"/>
<path fill-rule="evenodd" clip-rule="evenodd" d="M57.9931 12.1746C58.0326 11.8611 57.9003 11.5505 57.6462 11.3602C55.3196 9.61698 52.4955 8.73755 49.6622 8.77923C49.577 8.76922 49.493 8.77122 49.412 8.78465C47.8599 8.83728 46.3094 9.16649 44.8405 9.78359C44.1848 10.0591 43.5593 10.3862 42.9679 10.759C42.9184 10.785 42.8714 10.8155 42.8277 10.8502C42.6444 10.9692 42.4639 11.0916 42.2875 11.2191C42.197 10.3567 42.0202 9.50207 41.7526 8.66396C40.3645 4.31777 36.7144 1.00597 32.2266 0.0209137C31.9163 -0.0474959 31.5922 0.0545887 31.3778 0.288076C29.4135 2.42679 28.2691 5.13762 28.0475 7.94336C28.0297 8.02625 28.0239 8.10903 28.0297 8.18992C27.938 9.7299 28.124 11.2943 28.6063 12.8045C28.8207 13.4764 29.0895 14.1234 29.4066 14.7411C29.4275 14.7922 29.453 14.8412 29.483 14.8874C25.0137 15.3236 20.837 17.0352 17.3267 19.8835C16.9463 20.1921 16.8899 20.7484 17.2006 21.1262C17.3765 21.3398 17.6321 21.4506 17.8898 21.4506C18.0877 21.4506 18.2868 21.3853 18.4519 21.2515C21.9219 18.4359 26.098 16.8247 30.5558 16.576C32.3856 19.0137 35.0627 20.7761 38.1324 21.449C38.1961 21.463 38.2604 21.4699 38.324 21.4699L38.3298 21.4698C38.3343 21.4696 38.3386 21.4693 38.343 21.469C38.3476 21.4687 38.3522 21.4684 38.3568 21.4682C40.4272 22.7474 42.8057 23.4063 45.1996 23.4063C45.8717 23.4063 46.5448 23.3535 47.2126 23.2491C50.8271 27.125 52.8168 32.1625 52.8168 37.453C52.8168 42.6704 50.8711 47.667 47.3382 51.5225C47.0077 51.8832 47.0342 52.4418 47.3973 52.77C47.5678 52.9241 47.7819 53 47.9956 53C48.2372 53 48.478 52.9027 48.6534 52.7113C52.485 48.5298 54.5951 43.111 54.5951 37.453C54.5951 32.0442 52.6777 26.8788 49.1738 22.7832C49.5241 22.6704 49.8712 22.5431 50.2136 22.3992C54.4423 20.6222 57.423 16.7047 57.9931 12.1746ZM53.9831 17.349L51.2852 15.4715L55.9114 13.5279C55.5222 14.9235 54.8617 16.2198 53.9831 17.349ZM55.219 11.9011C53.7004 11.0764 52.0169 10.6204 50.3119 10.5514L49.7076 14.2167L55.219 11.9011ZM44.2098 12.0748C44.6328 11.826 45.0743 11.603 45.5333 11.4101C46.4911 11.0078 47.4892 10.7479 48.4976 10.6251L47.7714 15.0301L43.5979 16.7835L44.2098 12.0748ZM40.2039 9.69835C40.1589 9.53091 40.1105 9.36395 40.0578 9.19781C39.6578 7.94572 39.0395 6.7937 38.2498 5.78228L35.5419 8.9469L36.9239 13.2761L40.2039 9.69835ZM37.0409 4.46754L34.9077 6.96067L33.3896 2.20519C34.7525 2.71997 35.9905 3.49367 37.0409 4.46754ZM33.5028 8.40398L31.6942 2.73858C30.7262 4.16352 30.1125 5.78581 29.8846 7.46544L33.5028 8.40398ZM30.8443 13.6415C30.6344 13.2 30.4522 12.7425 30.3016 12.2706C29.9872 11.2861 29.8194 10.2751 29.79 9.26646L34.1382 10.3943L35.5078 14.6845L30.8443 13.6415ZM36.1301 16.634L32.1544 15.7448C33.3994 17.3185 35.0628 18.5443 36.9697 19.2642L36.1301 16.634ZM37.9856 16.6021L37.545 15.2221L40.5622 11.9311C40.5766 12.1877 40.5814 12.445 40.5775 12.7025C39.485 13.8315 38.6043 15.1536 37.9856 16.6021ZM41.7013 17.5803L42.2228 13.5666C40.7613 14.9443 39.6865 16.7029 39.1422 18.6555L41.7013 17.5803ZM39.8354 20.2819L43.2484 18.8479L46.8241 21.5223C44.4348 21.8718 41.9718 21.4416 39.8354 20.2819ZM45.1414 18.0527L49.0321 20.9626C49.1959 20.9027 49.3592 20.8402 49.521 20.7722C50.7393 20.2604 51.837 19.5418 52.7776 18.6667L49.3529 16.2833L45.1414 18.0527Z" fill="white"/>
</svg>
