<svg width="61" height="66" viewBox="0 0 61 66" fill="none" xmlns="http://www.w3.org/2000/svg">
<path fill-rule="evenodd" clip-rule="evenodd" d="M57.6829 32.6856H58.604C59.757 32.6792 60.7198 33.7778 60.6538 35.0333C60.344 40.9273 58.0516 46.4776 54.1987 50.6621C51.6661 53.4116 48.629 55.4125 45.315 56.5658V59.2866C45.315 62.9425 42.5761 65.9169 39.2096 65.9169H22.1048C18.7382 65.9169 15.9993 62.9425 15.9993 59.2866V56.5619C11.9676 55.1571 8.35351 52.5076 5.60007 48.8391C5.2934 48.4304 5.34976 47.8293 5.72605 47.4962C6.10246 47.1628 6.65605 47.2244 6.96261 47.633C10.9115 52.896 16.6083 55.8022 22.7896 55.8037H38.5247C44.0052 55.7879 49.0203 53.5864 52.9557 49.3124C56.503 45.4597 58.6136 40.35 58.8988 34.9244C58.909 34.7297 58.7978 34.6019 58.604 34.5944H2.71047C2.51851 34.601 2.40531 34.7303 2.4155 34.9242C2.5859 38.1635 3.3857 41.2505 4.79265 44.0995C5.02211 44.564 4.86132 45.1425 4.43359 45.3917C4.00597 45.6411 3.47312 45.4664 3.24367 45.0018C1.71472 41.906 0.845661 38.5521 0.660739 35.0333C0.594763 33.7779 1.55125 32.6786 2.71047 32.6856H9.78824C9.61504 32.0582 9.40562 31.4829 9.10164 31.0766C8.70864 30.5509 7.90769 30.1514 7.05983 29.7286L7.05953 29.7284L7.0595 29.7284L7.05948 29.7284C5.84402 29.1223 4.46651 28.4353 3.81953 27.0641C3.17234 25.6936 3.46348 24.0777 3.72034 22.6521L3.72039 22.6518L3.7205 22.6512C3.89952 21.6574 4.06863 20.7186 3.90578 20.0664C3.70696 19.2725 3.06162 18.4409 2.43749 17.6367L2.43707 17.6361L2.43702 17.636C1.56739 16.5155 0.668122 15.3568 0.657224 13.9579C0.643747 12.1934 1.77461 10.8698 2.77234 9.70202C3.32359 9.05694 3.84414 8.44774 4.04875 7.90561C4.29215 7.26141 4.41109 6.39896 4.52593 5.56477C4.76136 3.85464 5.02843 1.91645 6.51566 1.08938C8.00237 0.261898 9.60683 1.15804 11.0226 1.94877L11.023 1.94903C11.7136 2.33489 12.4277 2.73372 13.051 2.89522C13.5759 3.03113 14.3351 2.92805 15.1388 2.81873L15.1394 2.81865C16.5951 2.62091 18.2451 2.39676 19.5561 3.43913C20.5952 4.26633 20.9361 5.7353 21.2656 7.15591C21.5023 8.17604 21.7471 9.23077 22.2249 9.87051C22.5599 10.3178 23.1927 10.6742 23.8981 11.0319C24.1275 9.38934 24.4395 7.60196 25.8512 6.81625C27.3383 5.98834 28.9423 6.88446 30.3581 7.67539L30.359 7.6759C31.0496 8.06176 31.7636 8.46059 32.3869 8.62209C32.9114 8.75818 33.67 8.65502 34.4735 8.54577L34.4747 8.5456L34.4753 8.54552C35.931 8.34777 37.5811 8.12362 38.892 9.166C39.9311 9.99319 40.272 11.4622 40.6015 12.8828C40.8382 13.9029 41.083 14.9576 41.5608 15.5974C41.9533 16.1213 42.7539 16.5205 43.6015 16.9432L43.6017 16.9432C44.8175 17.5494 46.1954 18.2363 46.8426 19.6079C47.4895 20.9789 47.1988 22.5939 46.9423 24.0189L46.9422 24.0194L46.942 24.0202L46.942 24.0202C46.763 25.0145 46.5939 25.9536 46.7574 26.6066C46.9226 27.2673 47.3965 27.9535 47.9103 28.6283C48.3385 27.2575 48.7257 25.8612 49.0647 24.4587C49.188 23.9489 49.6681 23.644 50.1379 23.7777C50.6073 23.9116 50.8881 24.4334 50.7648 24.9432C50.3206 26.7813 49.7963 28.6092 49.206 30.3855C49.6576 31.0953 49.9898 31.8475 50.0036 32.6857H55.9056C55.8175 31.9941 55.7908 31.287 55.9537 30.6357C56.2356 29.5081 56.9553 28.5806 57.6515 27.6835L57.6517 27.6832L57.6527 27.6819C58.2633 26.895 58.8946 26.0813 58.8994 25.4502C58.9063 24.5479 58.1376 23.648 57.3941 22.7778C56.804 22.0873 56.1939 21.3734 55.8878 20.5635C55.5853 19.7623 55.46 18.8528 55.3389 17.9733C55.1659 16.7169 55.0026 15.5303 54.4002 15.195C53.7971 14.8594 52.8145 15.4086 51.774 15.9901L51.7736 15.9904C51.046 16.3971 50.2935 16.8176 49.5189 17.0188C48.8126 17.2018 48.0294 17.1224 47.2882 17.025C46.8064 16.9619 46.4629 16.4863 46.521 15.963C46.5793 15.4397 47.0178 15.0667 47.4991 15.13C48.0566 15.2031 48.6869 15.2718 49.1105 15.1622C49.678 15.0147 50.3345 14.6479 50.9692 14.2931C52.294 13.5527 53.795 12.7139 55.202 13.4962C56.6076 14.2788 56.8572 16.0915 57.0774 17.691L57.0776 17.6925C57.1832 18.4592 57.2924 19.2518 57.5141 19.8387C57.699 20.3281 58.1763 20.8867 58.6815 21.4781L58.6815 21.4781L58.6816 21.4782L58.6826 21.4794C59.6143 22.5696 60.67 23.8053 60.6572 25.4661C60.647 26.7855 59.8076 27.8671 58.9957 28.9132L58.9957 28.9133L58.9956 28.9133C58.4226 29.6518 57.8301 30.4154 57.65 31.1358C57.5474 31.5458 57.5936 32.0991 57.6829 32.6856ZM15.6393 21.2926C17.1372 25.2508 19.0084 29.0807 21.2024 32.6856V32.6857H22.7414C22.4445 31.7985 22.2899 30.857 22.2899 29.9021C22.2899 26.7921 23.9039 24.0847 26.2697 22.7131C26.0448 22.3098 25.8448 21.8617 25.7247 21.3792C25.454 20.2974 25.671 19.0922 25.8809 17.9266L25.8809 17.9264L25.8809 17.9262C26.0926 16.7505 26.3114 15.5346 25.9421 14.7517C25.5726 13.9687 24.5354 13.4515 23.5321 12.9514C22.5387 12.4562 21.5116 11.9441 20.8602 11.0742C20.1372 10.1062 19.8442 8.84352 19.561 7.62245L19.5608 7.6217C19.3073 6.52915 19.0451 5.39949 18.5172 4.97924C17.77 4.38519 16.5432 4.5519 15.357 4.71314L15.3557 4.71332C14.4319 4.83874 13.4767 4.96845 12.6428 4.75221C11.8127 4.53714 11.0023 4.08447 10.2187 3.64669L10.2165 3.64547C9.07659 3.00873 8.00081 2.4078 7.31699 2.78832C6.6331 3.16869 6.45391 4.46964 6.26419 5.84709L6.26418 5.84716L6.26402 5.84831L6.26402 5.84831C6.13364 6.79452 5.99885 7.77271 5.67484 8.6301C5.34933 9.49208 4.69436 10.2588 4.06102 11.0001L4.06082 11.0003C3.24777 11.9519 2.40719 12.9359 2.41492 13.9418C2.42043 14.6526 3.11207 15.5439 3.78098 16.4059C4.5284 17.3689 5.30113 18.3645 5.60207 19.566C5.87234 20.6483 5.6554 21.8526 5.44557 23.0173L5.44539 23.0184L5.44534 23.0187C5.23348 24.1948 5.01441 25.4111 5.38375 26.1933C5.75335 26.9764 6.79016 27.4934 7.79301 27.9936L7.79312 27.9936C8.78723 28.4893 9.81496 29.0019 10.4662 29.8731C11.0636 30.6714 11.367 31.6727 11.6144 32.6856H19.1069C17.1197 29.2879 15.4095 25.7071 14.0134 22.0183C12.9552 19.2238 12.0583 16.3149 11.3478 13.3724C11.2247 12.8624 11.5055 12.3408 11.9751 12.207C12.4445 12.0735 12.9249 12.3783 13.0482 12.8883C13.7389 15.7488 14.6106 18.5763 15.6393 21.2926ZM34.9282 32.6856H24.6517C24.2559 31.8249 24.0477 30.8728 24.0477 29.902C24.0477 26.4636 26.6236 23.6662 29.7899 23.6662C32.9562 23.6662 35.5321 26.4636 35.5321 29.902C35.5322 30.8729 35.324 31.8251 34.9282 32.6856ZM36.8385 32.6856H41.0689C41.4647 31.8251 41.6729 30.8729 41.6727 29.902C41.6727 26.4636 39.0968 23.6662 35.9305 23.6662C35.5277 23.6662 35.1337 23.7126 34.7493 23.7996C36.3058 25.2931 37.2899 27.4745 37.2899 29.902C37.2899 30.857 37.1355 31.7983 36.8385 32.6856ZM42.9791 32.6856C43.2761 31.7983 43.4307 30.857 43.4307 29.902C43.4307 25.411 40.0662 21.7573 35.9307 21.7573C34.8702 21.7573 33.8161 22.0032 32.8557 22.4716C31.919 22.0141 30.8819 21.7573 29.79 21.7573C29.1528 21.7573 28.5339 21.8447 27.9427 22.0079C27.7218 21.6579 27.5185 21.2689 27.4214 20.8796C27.258 20.2266 27.4271 19.2875 27.6061 18.2932L27.6061 18.2932L27.6062 18.2924L27.6063 18.2919V18.2918C27.8628 16.8669 28.1535 15.2519 27.5066 13.8809C27.0843 12.986 26.3506 12.3834 25.5543 11.9038C25.5676 11.8086 25.5809 11.7121 25.5942 11.6149C25.7714 10.3246 25.9675 8.89634 26.6532 8.51493C27.3371 8.13447 28.4131 8.73554 29.5532 9.3724L29.5548 9.37331C30.3385 9.81108 31.1488 10.2638 31.979 10.4788C32.8128 10.695 33.7677 10.5654 34.6914 10.44L34.6932 10.4398C35.8793 10.2785 37.1062 10.1119 37.8534 10.7059C38.3813 11.1263 38.6435 12.2559 38.897 13.3485L38.897 13.3486L38.8971 13.3491C39.1804 14.5701 39.4734 15.8328 40.1964 16.8008C40.8477 17.6707 41.8749 18.1828 42.8683 18.678C43.8715 19.1781 44.9087 19.6953 45.2782 20.4783C45.6476 21.2612 45.4287 22.4771 45.2171 23.6528L45.2171 23.653L45.217 23.6532C45.0072 24.8188 44.7902 26.0241 45.0611 27.1067C45.3616 28.309 46.1345 29.305 46.8821 30.2683C47.5368 31.1119 48.2116 31.9834 48.2443 32.6856H42.9791ZM39.2096 64.0079C41.6069 64.0079 43.5572 61.8899 43.5572 59.2866H43.5571V57.0916C41.9259 57.501 40.2404 57.7126 38.5247 57.7126H22.7896C21.075 57.7126 19.3888 57.4989 17.7572 57.0881V59.2866C17.7572 61.8899 19.7076 64.0079 22.1049 64.0079H39.2096Z" fill="white"/>
</svg>
